<svg width="134" height="90" viewBox="0 0 134 90" fill="none" xmlns="http://www.w3.org/2000/svg">
<g filter="url(#filter0_d_294_566)">
<path d="M5.15785 18.6711C-0.278052 34.4536 2.79292 36.8696 3.53771 40.8284C6.48753 48.483 17.1215 52.7965 27.0206 52.7966C37.9584 50.6427 41.6893 45.0129 52.6801 41.916C49.7493 28.7957 42.6156 24.0933 34.5087 24.2371C29.133 24.3324 22.5988 27.2175 17.1428 25.5555C12.0971 24.0184 11.5814 20.4459 5.15785 18.6711Z" fill="#E99B25"/>
<path d="M99.9667 2C99.9667 2 96.6336 4.83178 95.3923 6.34065C92.7653 9.2883 89.1749 13.6537 89.1749 20.0779C89.1757 23.6173 89.8073 28.5087 91.1017 31.87L86.6174 31.3327L86.7779 46.0125L89.9555 44.9824L99.9014 40.6221C101.836 41.8186 103.888 42.8094 105.845 43.3374C109.046 44.2015 115.756 42.4958 115.756 42.4958C115.756 42.4958 121.178 40.7043 123.401 37.5088C126.518 33.0264 127.926 29.7638 127.926 29.7638L121.117 25.7326C118.46 18.5471 115.727 14.4921 109.679 13.2532L108.158 3.83159C108.158 3.83159 106.2 5.41886 105.088 6.69586C104.104 7.82596 102.943 10.6471 102.943 10.6471C102.943 10.6471 101.508 7.78935 101.104 6.25458C100.573 4.24135 99.9667 2 99.9667 2Z" fill="#E99B25"/>
<path d="M69.5336 15.2876C56.488 15.2874 45.9122 25.8628 45.9121 38.9085C45.9315 40.4832 46.1084 42.052 46.44 43.5915H46.4175L46.4852 43.7984C51.4777 57.4974 61.5697 71.1032 69.2437 83.7241C74.9146 71.1835 88.6727 57.546 92.5148 44.1036L92.5863 43.8893H92.5618C92.9356 42.2548 93.1343 40.5851 93.1545 38.9085C93.1543 25.8631 82.579 15.2877 69.5336 15.2876Z" fill="#E99B25"/>
</g>
<defs>
<filter id="filter0_d_294_566" x="0" y="0" width="133.926" height="89.7241" filterUnits="userSpaceOnUse" color-interpolation-filters="sRGB">
<feFlood flood-opacity="0" result="BackgroundImageFix"/>
<feColorMatrix in="SourceAlpha" type="matrix" values="0 0 0 0 0 0 0 0 0 0 0 0 0 0 0 0 0 0 127 0" result="hardAlpha"/>
<feOffset dx="2" dy="2"/>
<feGaussianBlur stdDeviation="2"/>
<feComposite in2="hardAlpha" operator="out"/>
<feColorMatrix type="matrix" values="0 0 0 0 0 0 0 0 0 0 0 0 0 0 0 0 0 0 0.4 0"/>
<feBlend mode="normal" in2="BackgroundImageFix" result="effect1_dropShadow_294_566"/>
<feBlend mode="normal" in="SourceGraphic" in2="effect1_dropShadow_294_566" result="shape"/>
</filter>
</defs>
</svg>
