<svg width="31" height="31" viewBox="0 0 31 31" fill="none" xmlns="http://www.w3.org/2000/svg">
<path d="M15.4394 30C23.4141 30 29.8788 23.5081 29.8788 15.5C29.8788 7.49187 23.4141 1 15.4394 1C7.46475 1 1 7.49187 1 15.5C1 23.5081 7.46475 30 15.4394 30Z" stroke="#663500" stroke-width="2"/>
<path d="M10.7258 9.23828L13.9624 11.5544L10.6368 13.7814" stroke="#663500" stroke-width="2" stroke-linecap="round" stroke-linejoin="round"/>
<path d="M21.2175 9.31226L17.9809 11.6284L21.3066 13.8554" stroke="#663500" stroke-width="2" stroke-linecap="round" stroke-linejoin="round"/>
<path d="M8.01377 21.8757C8.76907 20.2994 9.52436 18.7232 10.3275 18.8444C11.1307 18.9656 11.9817 20.7843 12.918 20.7757C13.8542 20.7671 14.8756 18.9313 15.8648 18.9446C16.8541 18.9578 17.8111 20.82 18.7573 20.8114C19.7036 20.8029 20.639 18.9234 21.4709 18.7852C22.3028 18.647 23.0312 20.2499 23.7597 21.8529" stroke="#663500" stroke-width="2" stroke-linecap="round" stroke-linejoin="round"/>
</svg>
