<svg width="40" height="32" viewBox="0 0 40 32" fill="none" xmlns="http://www.w3.org/2000/svg">
<path d="M20.0462 1C16.8007 1.00609 13.6443 2.0581 11.0478 3.99906C8.45124 5.94002 6.55382 8.66589 5.63861 11.7699C5.75007 12.1791 5.81296 12.6159 5.81296 13.0711C5.86843 14.0109 5.58911 14.94 5.02393 15.6959C5.01492 15.7972 5.00694 15.8986 5 16C5 19.9782 6.5852 23.7934 9.40689 26.6065C12.2286 29.4195 16.0556 30.9999 20.0462 31C23.8248 30.9883 27.4607 29.5598 30.2313 26.9982C33.0019 24.4367 34.7042 20.9297 35 17.1743C34.5224 16.6081 34.2582 15.8998 34.2513 15.1672V11.1564C34.2555 11.1386 34.2603 11.1209 34.2657 11.1034C33.244 8.1542 31.3252 5.59601 28.7764 3.78507C26.2277 1.97413 23.176 1.00057 20.0462 1Z" stroke="#663500" stroke-width="2"/>
<path d="M12 11.9297C12.1545 7.85426 16.8966 8.17399 17 12" stroke="#663500" stroke-width="2" stroke-linecap="round" stroke-linejoin="round"/>
<path d="M23 11.9297C23.1545 7.85425 27.8965 8.17399 28 12" stroke="#663500" stroke-width="2" stroke-linecap="round" stroke-linejoin="round"/>
<path d="M26 20C25.9546 21.0713 25.3027 22.0883 24.1827 22.8352C23.0626 23.582 21.5625 23.9998 20.0009 24C18.4393 24.0002 16.939 23.5826 15.8186 22.836C14.6982 22.0894 14.0458 21.0726 14 20.0013" stroke="#663500" stroke-width="2" stroke-linecap="round" stroke-linejoin="round"/>
<path d="M3.00013 9C1.34917 9 0.00634809 10.8353 0.00634809 13.0914C-0.0383218 13.9223 0.153591 14.7479 0.555675 15.4545C0.957759 16.1612 1.55025 16.7143 2.25163 17.0376V18.9934C1.91838 19.1525 1.63475 19.4142 1.4354 19.7467C1.23604 20.0792 1.12962 20.468 1.12912 20.8656V24.9573C1.1299 25.4994 1.32737 26.0189 1.67817 26.4019C2.02897 26.7849 2.50442 27 3.00014 27C3.49586 27 3.97131 26.7849 4.32211 26.4019C4.67291 26.0189 4.87038 25.4994 4.87116 24.9573V20.8656C4.87064 20.468 4.76418 20.0792 4.56477 19.7467C4.36537 19.4142 4.08168 19.1524 3.74839 18.9934V17.0376C4.44976 16.7143 5.04225 16.1612 5.44433 15.4545C5.84642 14.7478 6.03832 13.9223 5.99365 13.0914C5.99365 10.8353 4.65109 9 3.00013 9ZM3.00013 10.6366C3.8114 10.6366 4.49689 11.7608 4.49689 13.0914C4.49689 14.422 3.8114 15.5465 3.00013 15.5465C2.18888 15.5465 1.50337 14.422 1.50337 13.0914C1.50337 11.7608 2.18888 10.6366 3.00013 10.6366ZM2.88448 20.4766C2.94062 20.4567 3.00028 20.4516 3.05857 20.4617C3.11686 20.4718 3.17214 20.4968 3.21989 20.5348C3.26764 20.5727 3.30651 20.6225 3.33331 20.68C3.36011 20.7375 3.3741 20.8011 3.37412 20.8656V24.9573C3.37218 25.0644 3.3319 25.1664 3.26195 25.2414C3.192 25.3164 3.09795 25.3584 3 25.3584C2.90204 25.3584 2.80799 25.3164 2.73804 25.2414C2.66809 25.1664 2.62781 25.0644 2.62587 24.9573V20.8656C2.62589 20.7792 2.65092 20.6951 2.69738 20.6252C2.74383 20.5553 2.80933 20.5033 2.88448 20.4766Z" fill="#663500"/>
<path d="M25.5126 22C24.7025 22.9131 23.4766 23.6448 22 24.0966C22.1368 24.5823 22.4407 25.0608 22.9057 25.4546L23.8137 26.2238C24.94 27.1778 26.5595 27.2644 27.4447 26.4172C28.33 25.57 28.1363 24.1199 27.0099 23.1659L26.1012 22.3961C25.9167 22.2399 25.7182 22.1094 25.5126 22Z" stroke="#663500" stroke-width="2" stroke-linecap="round" stroke-linejoin="round"/>
<path d="M34.7501 11C34.5512 11 34.3604 11.0813 34.2198 11.2262C34.0791 11.3711 34 11.5676 34 11.7726V15.6363C34.0025 16.3195 34.2247 16.9827 34.6318 17.522C35.0389 18.0614 35.608 18.4466 36.2501 18.6174V20.4365C35.9161 20.5867 35.6318 20.8339 35.432 21.1478C35.2321 21.4618 35.1254 21.829 35.1249 22.2044V26.0681C35.1249 26.5805 35.3225 27.0719 35.6741 27.4342C36.0258 27.7965 36.5027 28 37 28C37.4973 28 37.9742 27.7965 38.3259 27.4342C38.6775 27.0719 38.8751 26.5805 38.8751 26.0681V22.2044C38.8746 21.829 38.7679 21.4619 38.5681 21.1479C38.3683 20.8339 38.0841 20.5867 37.7501 20.4365V18.6174C38.3922 18.4465 38.9612 18.0613 39.3683 17.522C39.7754 16.9826 39.9975 16.3195 40 15.6363V11.7726C39.9986 11.5686 39.9189 11.3735 39.7784 11.2298C39.6379 11.086 39.448 11.0054 39.25 11.0054C39.052 11.0054 38.8621 11.086 38.7216 11.2298C38.5811 11.3735 38.5014 11.5686 38.5 11.7726V14.8634H37.7501V11.7726C37.749 11.5684 37.6694 11.3731 37.5289 11.2291C37.3884 11.0852 37.1983 11.0044 37.0001 11.0044C36.802 11.0044 36.6119 11.0852 36.4714 11.2291C36.3308 11.3731 36.2513 11.5684 36.2501 11.7726V14.8634H35.5V11.7726C35.5 11.5677 35.4209 11.3712 35.2803 11.2263C35.1397 11.0815 34.949 11 34.7501 11ZM35.6685 15.8939H38.2651C38.1333 16.1285 37.944 16.3232 37.7161 16.4586C37.4882 16.594 37.2298 16.6652 36.9668 16.6652C36.7038 16.6652 36.4453 16.594 36.2175 16.4586C35.9896 16.3232 35.8003 16.1285 35.6685 15.8939ZM37.0586 21.8228C37.1468 21.8372 37.2272 21.8835 37.2852 21.9535C37.3432 22.0234 37.3751 22.1124 37.3751 22.2044V26.0681C37.3746 26.1703 37.3349 26.2682 37.2646 26.3403C37.1943 26.4124 37.0992 26.4529 37 26.4529C36.9008 26.4529 36.8056 26.4124 36.7354 26.3403C36.6651 26.2682 36.6254 26.1703 36.6249 26.0681V22.2044C36.625 22.1228 36.65 22.0434 36.6966 21.9774C36.7431 21.9114 36.8088 21.8622 36.8841 21.837C36.9404 21.8182 37.0002 21.8133 37.0586 21.8228Z" fill="#663500"/>
</svg>
