<svg width="32" height="33" viewBox="0 0 32 33" fill="none" xmlns="http://www.w3.org/2000/svg">
<path d="M16 31.3242C24.2843 31.3242 31 24.6085 31 16.3242C31 8.03995 24.2843 1.32422 16 1.32422C7.71573 1.32422 1 8.03995 1 16.3242C1 24.6085 7.71573 31.3242 16 31.3242Z" stroke="#663500" stroke-width="2"/>
<path d="M8 15.2539C8.15452 11.1785 12.8965 11.4982 13 15.3242" stroke="#663500" stroke-width="2" stroke-linecap="round" stroke-linejoin="round"/>
<path d="M19 15.2539C19.1545 11.1785 23.8966 11.4982 24 15.3242" stroke="#663500" stroke-width="2" stroke-linecap="round" stroke-linejoin="round"/>
<path d="M7 21.3242C7.5015 23.0351 8.65922 24.5544 10.2896 25.6413C11.9199 26.7282 13.9296 27.3205 16 27.3242C18.0704 27.3205 20.0801 26.7282 21.7104 25.6413C23.3408 24.5544 24.4985 23.0351 25 21.3242H7Z" stroke="#663500" stroke-width="2" stroke-linecap="round" stroke-linejoin="round"/>
<path d="M29.2565 13.3592H28.9758C28.6281 10.4519 26.1574 8.19775 23.1569 8.19775C20.3684 8.19775 18.0404 10.1447 17.4436 12.7518L16.1004 12.0503C15.9648 11.98 15.802 11.98 15.6665 12.0503L14.3233 12.7518C13.7274 10.1447 11.3985 8.19775 8.61006 8.19775C5.60864 8.19775 3.13885 10.4528 2.7903 13.3592H2.5095C2.12046 13.3592 1.80536 13.6743 1.80536 14.0633C1.80536 14.4515 2.12046 14.7666 2.5095 14.7666H2.7903C3.13885 17.6738 5.60864 19.928 8.61006 19.928C11.8491 19.928 14.4756 17.3024 14.4756 14.0624C14.4756 13.9534 14.465 13.8468 14.4588 13.7385L15.883 12.9948L17.3071 13.7385C17.3005 13.8459 17.2904 13.9533 17.2904 14.0624C17.2904 17.3015 19.9168 19.928 23.1559 19.928C26.1565 19.928 28.6262 17.6738 28.9748 14.7666H29.2556C29.6446 14.7666 29.9597 14.4515 29.9597 14.0624C29.9597 13.6734 29.6456 13.3592 29.2565 13.3592ZM8.61006 18.9897C5.89293 18.9897 3.68279 16.7795 3.68279 14.0624C3.68279 11.3453 5.89293 9.13514 8.61006 9.13514C11.3272 9.13514 13.5373 11.3453 13.5373 14.0624C13.5373 16.7795 11.3272 18.9897 8.61006 18.9897ZM23.156 18.9897C20.4389 18.9897 18.2287 16.7795 18.2287 14.0624C18.2287 11.3453 20.4389 9.13603 23.156 9.13603C25.8731 9.13603 28.0832 11.3462 28.0832 14.0624C28.0832 16.7787 25.8731 18.9897 23.156 18.9897Z" fill="#663500"/>
</svg>
