<svg width="32" height="31" viewBox="0 0 32 31" fill="none" xmlns="http://www.w3.org/2000/svg">
<path d="M15.5 30C23.5082 30 30 23.5081 30 15.5C30 7.49187 23.5082 1 15.5 1C7.49187 1 1 7.49187 1 15.5C1 23.5081 7.49187 30 15.5 30Z" stroke="#663500" stroke-width="2" stroke-linecap="round" stroke-linejoin="round"/>
<path d="M23 23C22.9471 21.9287 22.1865 20.9117 20.8798 20.1648C19.573 19.418 17.8229 19.0002 16.001 19C14.1791 18.9998 12.4289 19.4174 11.1217 20.164C9.81457 20.9105 9.05348 21.9274 9 22.9987" stroke="#663500" stroke-width="2" stroke-linecap="round" stroke-linejoin="round"/>
<path d="M20 12L25 8" stroke="#663500" stroke-width="2" stroke-linecap="round" stroke-linejoin="round"/>
<path d="M13 12L8 8" stroke="#663500" stroke-width="2" stroke-linecap="round" stroke-linejoin="round"/>
</svg>
