<svg width="31" height="31" viewBox="0 0 31 31" fill="none" xmlns="http://www.w3.org/2000/svg">
<path d="M15.5 30C23.5081 30 30 23.5081 30 15.5C30 7.49187 23.5081 1 15.5 1C7.49187 1 1 7.49187 1 15.5C1 23.5081 7.49187 30 15.5 30Z" stroke="#663500" stroke-width="2"/>
<path d="M8 12.2963C8.14534 9.10199 12.6054 9.35258 12.7027 12.3514" stroke="#663500" stroke-width="2" stroke-linecap="round" stroke-linejoin="round"/>
<path d="M18 12.2963C18.1453 9.10199 22.6054 9.35258 22.7027 12.3514" stroke="#663500" stroke-width="2" stroke-linecap="round" stroke-linejoin="round"/>
<path d="M20.5946 22.1621C20.5561 21.1125 20.0025 20.1161 19.0515 19.3844C18.1004 18.6527 16.8267 18.2434 15.5007 18.2432C14.1748 18.243 12.9009 18.6521 11.9496 19.3836C10.9982 20.115 10.4443 21.1113 10.4054 22.1609" stroke="#663500" stroke-width="2" stroke-linecap="round" stroke-linejoin="round"/>
<path d="M24.7795 14.3745C24.8491 14.3075 24.9618 14.3075 25.0314 14.3745C25.2208 14.5568 25.6744 15.082 26.081 15.7126C26.4836 16.3368 26.8649 17.1012 26.8649 17.7533C26.8649 18.3855 26.6768 18.9027 26.3271 19.2633C25.9763 19.6251 25.4807 19.8107 24.9054 19.8107C24.3301 19.8107 23.8345 19.6251 23.4837 19.2633C23.1341 18.9027 22.946 18.3855 22.946 17.7533C22.946 17.1012 23.3273 16.3368 23.7298 15.7126C24.1365 15.082 24.59 14.5568 24.7795 14.3745Z" stroke="#663500" stroke-width="2" stroke-linecap="round" stroke-linejoin="round"/>
</svg>
