<svg width="35" height="31" viewBox="0 0 35 31" fill="none" xmlns="http://www.w3.org/2000/svg">
<path d="M15.5 1C13.5959 0.999965 11.7103 1.37499 9.95111 2.10367C8.19189 2.83235 6.59342 3.90041 5.24696 5.24686C3.90051 6.59331 2.83244 8.19179 2.10375 9.95103C1.37505 11.7103 0.999996 13.5958 1 15.5C0.999998 17.4042 1.37505 19.2897 2.10375 21.049C2.83244 22.8082 3.90052 24.4067 5.24697 25.7531C6.59342 27.0996 8.19189 28.1677 9.95111 28.8963C11.7103 29.625 13.5959 30 15.5 30C17.4042 30 19.2897 29.625 21.0489 28.8963C22.8081 28.1676 24.4066 27.0996 25.753 25.7531C27.0995 24.4067 28.1676 22.8082 28.8963 21.049C29.6249 19.2897 30 17.4042 30 15.5C29.9983 14.1733 29.8145 12.853 29.4538 11.5763L28.7982 12.2292C28.6243 12.4021 28.342 12.4021 28.1683 12.2292L23.4824 7.5627C22.3033 6.38852 22.2414 4.52504 23.2939 3.27681C20.9658 1.79109 18.2618 1.00118 15.5 1Z" stroke="#663500" stroke-width="2" stroke-linecap="round" stroke-linejoin="round"/>
<path d="M8 12.2963C8.14534 9.10199 12.6054 9.35258 12.7027 12.3514" stroke="#663500" stroke-width="2" stroke-linecap="round" stroke-linejoin="round"/>
<path d="M17 12.2963C17.1453 9.10199 21.6054 9.35258 21.7027 12.3514" stroke="#663500" stroke-width="2" stroke-linecap="round" stroke-linejoin="round"/>
<path d="M23 19C22.9395 20.8748 22.0703 22.6546 20.5769 23.9615C19.0834 25.2685 17.0834 25.9997 15.0012 26C12.919 26.0003 10.9187 25.2696 9.4248 23.9631C7.93093 22.6565 7.06111 20.877 7 19.0022" stroke="#663500" stroke-width="2" stroke-linecap="round" stroke-linejoin="round"/>
<path d="M31.0424 2C30.2852 2 29.5281 2.30416 28.9499 2.91219L28.4982 3.38788L28.0459 2.91155C26.8916 1.69765 25.02 1.69765 23.8657 2.91155C22.7114 4.12541 22.7114 6.09366 23.8657 7.30758L28.207 11.8731C28.368 12.0423 28.6295 12.0423 28.7906 11.8731L33.1356 7.30629C34.2873 6.0884 34.2892 4.12632 33.135 2.91219C32.5568 2.30416 31.7996 2 31.0424 2Z" stroke="#663500" stroke-width="2" stroke-linecap="round" stroke-linejoin="round"/>
</svg>
