<svg width="64" height="64" viewBox="0 0 64 64" fill="none" xmlns="http://www.w3.org/2000/svg">
<ellipse cx="32.2854" cy="32.377" rx="31.4226" ry="31.4183" fill="#C9461E"/>
<path d="M44.5733 36.3175C47.0693 36.3175 49.0928 38.3041 49.0928 40.7549V41.8902C49.0928 43.6548 48.4505 45.3612 47.2819 46.7017C44.128 50.3195 39.3306 52.1048 33.0094 52.1048C26.6874 52.1048 21.8924 50.3189 18.7447 46.6996C17.5796 45.36 16.9395 43.6562 16.9395 41.8946V40.7549C16.9395 38.3041 18.9629 36.3175 21.4589 36.3175H44.5733ZM44.5733 39.2772H21.4589C20.6277 39.2772 19.9539 39.9388 19.9539 40.7549V41.8946C19.9539 42.9516 20.338 43.9739 21.0371 44.7777C23.5558 47.6735 27.5065 49.1451 33.0094 49.1451C38.5124 49.1451 42.4666 47.6735 44.9917 44.7771C45.6929 43.9729 46.0783 42.9488 46.0783 41.8902V40.7549C46.0783 39.9388 45.4045 39.2772 44.5733 39.2772ZM33.0094 12.6492C38.5588 12.6492 43.0576 17.0662 43.0576 22.5148C43.0576 27.9635 38.5588 32.3805 33.0094 32.3805C27.46 32.3805 22.9613 27.9635 22.9613 22.5148C22.9613 17.0662 27.46 12.6492 33.0094 12.6492ZM33.0094 15.6089C29.1248 15.6089 25.9757 18.7008 25.9757 22.5148C25.9757 26.3289 29.1248 29.4208 33.0094 29.4208C36.8941 29.4208 40.0432 26.3289 40.0432 22.5148C40.0432 18.7008 36.8941 15.6089 33.0094 15.6089Z" fill="#FFFAED"/>
</svg>
