<svg width="37" height="31" viewBox="0 0 37 31" fill="none" xmlns="http://www.w3.org/2000/svg">
<path d="M17.5 30C25.5081 30 32 23.5081 32 15.5C32 7.49187 25.5081 1 17.5 1C9.49188 1 3 7.49187 3 15.5C3 23.5081 9.49188 30 17.5 30Z" stroke="#663500" stroke-width="2"/>
<path d="M23 20C22.9622 21.0713 22.419 22.0883 21.4856 22.8352C20.5522 23.582 19.3021 23.9998 18.0007 24C16.6994 24.0002 15.4492 23.5826 14.5155 22.836C13.5818 22.0894 13.0382 21.0726 13 20.0013" stroke="#663500" stroke-width="2" stroke-linecap="round" stroke-linejoin="round"/>
<path d="M36.1001 5.00025C35.0622 5.07008 31.5305 5.41605 26.9609 5.41605C20.5218 5.41605 20.106 7.70033 18.1666 7.70033C15.9522 7.70033 16.0908 5.41605 9.37335 5.41605C4.80372 5.41605 1.27205 5.07008 0.234154 5.00025C-0.513199 4.95036 0.511351 12.3387 3.55739 15.1086C5.86382 17.2055 11.4513 18.9874 15.8136 16.0778C17.4758 14.7637 18.1666 14.7637 18.1666 14.7637C18.1666 14.7637 18.8607 14.7637 20.5218 16.0778C24.883 18.9874 30.4716 17.2055 32.777 15.1086C35.8229 12.3387 36.8486 4.95036 36.1001 5.00025ZM14.3665 11.252C11.1264 14.8658 5.8294 12.3731 5.7673 8.75816C11.7485 7.82452 14.6016 10.9892 14.3665 11.252ZM21.9678 11.252C21.7327 10.9892 24.5847 7.82452 30.567 8.75816C30.5049 12.3731 25.209 14.8658 21.9678 11.252Z" fill="#663500"/>
<path d="M34 7V7V30V30V7Z" stroke="#663500" stroke-width="2" stroke-linecap="round" stroke-linejoin="round"/>
<path d="M21.2794 12.0359C21.4166 8.50249 25.6272 8.77968 25.7191 12.0969" stroke="#663500" stroke-width="2" stroke-linecap="round" stroke-linejoin="round"/>
<path d="M9.27942 12.0359C9.41663 8.50249 13.6272 8.77968 13.7191 12.0969" stroke="#663500" stroke-width="2" stroke-linecap="round" stroke-linejoin="round"/>
</svg>
