<svg width="39" height="31" viewBox="0 0 39 31" fill="none" xmlns="http://www.w3.org/2000/svg">
<path d="M11 22C11.195 22.8554 11.6453 23.6151 12.2793 24.1586C12.9133 24.702 13.6949 24.9981 14.5 25C15.3052 24.9981 16.0867 24.702 16.7207 24.1586C17.3548 23.6151 17.805 22.8554 18 22H11Z" stroke="#663500" stroke-width="2" stroke-linecap="round" stroke-linejoin="round"/>
<path d="M5.53205 5.37451C8.78585 5.78208 12.4423 6.20987 15.7552 6.23886C19.0667 6.31064 22.5581 5.77981 25.8378 5.47211C26.7531 6.74278 27.4666 7.26628 28.0815 8.21445C26.7882 8.58014 22.3449 9.41387 15.699 9.31168C9.05307 9.20956 4.67394 8.39064 3.40881 7.98572C3.82615 7.46181 4.52671 6.61575 5.53205 5.37451Z" fill="#663500"/>
<path d="M3.00283 9.31396C6.9703 9.73003 11.3726 10.3153 15.412 10.3449C19.4499 10.4182 24.5781 9.80098 28.577 9.48688C29.6932 10.784 29.4768 11.8244 29.9392 12.3715C28.3623 12.7448 23.3754 13.4708 15.2717 13.3664C7.16811 13.2622 3.05494 12.116 1.51233 11.7026C2.08011 10.5788 1.77698 10.5811 3.00283 9.31396Z" fill="#663500"/>
<path d="M15.3207 1C13.4401 0.999967 11.5779 1.37191 9.84042 2.09459C8.10295 2.81726 6.52425 3.87652 5.19445 5.21188C3.86464 6.54724 2.80978 8.13255 2.0901 9.8773C1.37042 11.622 0.999998 13.4921 1 15.3806C0.999996 17.2691 1.37041 19.1391 2.09009 20.8838C2.80977 22.6286 3.86463 24.2139 5.19444 25.5492C6.52424 26.8846 8.10295 27.9439 9.84042 28.6665C11.5779 29.3892 13.4401 29.7612 15.3207 29.7611C18.5471 29.7485 21.6747 28.6421 24.1967 26.6213C23.9137 24.0581 24.9474 20.6722 26.9643 18.6557C27.6776 17.9425 28.5629 17.3522 29.5223 16.8987C29.5887 16.3951 29.6285 15.8884 29.6414 15.3806C29.6414 13.4921 29.271 11.622 28.5513 9.8773C27.8316 8.13255 26.7768 6.54724 25.447 5.21188C24.1172 3.87652 22.5385 2.81726 20.801 2.09459C19.0635 1.37191 17.2013 0.999967 15.3207 1Z" stroke="#663500" stroke-width="2"/>
<path d="M7.27942 17.0359C7.41663 13.5025 11.6272 13.7797 11.7191 17.0969" stroke="#663500" stroke-width="2" stroke-linecap="round" stroke-linejoin="round"/>
<path d="M18.2794 17.0359C18.4166 13.5025 22.6272 13.7797 22.7191 17.0969" stroke="#663500" stroke-width="2" stroke-linecap="round" stroke-linejoin="round"/>
<path d="M37.435 17.1446C35.3444 15.0571 29.6909 15.9479 26.8192 18.819C23.9474 21.6902 23.0573 27.3443 25.1448 29.4348C26.1223 30.2558 27.38 30.6659 28.6536 30.5787C31.2906 30.5554 33.8243 29.5506 35.7606 27.7604C38.6312 24.8893 39.5225 19.2352 37.435 17.1446ZM33.9262 17.2055C34.8778 17.1292 35.8231 17.4147 36.5735 18.0049C37.1916 18.6237 37.4417 19.8217 37.3492 21.1876L33.3944 17.2328C33.5739 17.2215 33.754 17.2055 33.9262 17.2055ZM26.0063 28.5733C25.3882 27.9557 25.1381 26.7577 25.2306 25.3918L29.1853 29.3466C27.8219 29.441 26.6239 29.1915 26.0063 28.5733ZM34.9003 26.9001C33.7225 28.0099 32.2653 28.7789 30.6845 29.1251L25.4521 23.8926C25.799 22.3123 26.569 20.856 27.6795 19.6793C28.8592 18.5699 30.319 17.803 31.902 17.461L37.1259 22.6849C36.7797 24.2657 36.0105 25.7227 34.9003 26.9001ZM34.7622 23.1114C34.6481 23.2255 34.4934 23.2896 34.332 23.2896C34.1707 23.2896 34.016 23.2255 33.9019 23.1114L33.1152 22.3247L32.1502 23.2897L32.9369 24.0764C32.995 24.1325 33.0413 24.1997 33.0732 24.2739C33.1051 24.3481 33.1218 24.4279 33.1225 24.5087C33.1232 24.5895 33.1078 24.6696 33.0772 24.7443C33.0466 24.8191 33.0015 24.887 32.9443 24.9441C32.8872 25.0013 32.8193 25.0464 32.7445 25.077C32.6698 25.1076 32.5897 25.123 32.5089 25.1223C32.4281 25.1216 32.3483 25.1049 32.2741 25.073C32.1999 25.0411 32.1327 24.9948 32.0766 24.9367L31.2899 24.15L30.3249 25.115L31.1116 25.9017C31.1697 25.9578 31.2161 26.0249 31.248 26.0992C31.2799 26.1734 31.2967 26.2533 31.2974 26.3341C31.2981 26.4148 31.2828 26.495 31.2522 26.5698C31.2216 26.6445 31.1764 26.7125 31.1192 26.7696C31.0621 26.8267 30.9942 26.8719 30.9194 26.9025C30.8446 26.9331 30.7645 26.9485 30.6837 26.9478C30.6029 26.9471 30.523 26.9303 30.4488 26.8984C30.3746 26.8665 30.3074 26.8201 30.2513 26.762L27.8176 24.3283C27.7068 24.2135 27.6455 24.0598 27.6469 23.9003C27.6483 23.7408 27.7123 23.5882 27.8251 23.4755C27.9379 23.3627 28.0905 23.2987 28.25 23.2973C28.4095 23.2959 28.5632 23.3572 28.6779 23.468L29.4646 24.2547L30.4296 23.2897L29.6429 22.503C29.5321 22.3882 29.4708 22.2346 29.4722 22.0751C29.4736 21.9155 29.5376 21.763 29.6504 21.6502C29.7632 21.5374 29.9158 21.4734 30.0753 21.472C30.2348 21.4706 30.3885 21.5319 30.5032 21.6427L31.2899 22.4294L32.2549 21.4644L31.4682 20.6777C31.3574 20.563 31.2961 20.4093 31.2975 20.2498C31.2989 20.0903 31.3628 19.9377 31.4756 19.8249C31.5884 19.7121 31.741 19.6481 31.9005 19.6467C32.06 19.6453 32.2137 19.7066 32.3285 19.8174L34.7622 22.2511C34.8762 22.3652 34.9403 22.52 34.9403 22.6813C34.9403 22.8426 34.8762 22.9973 34.7622 23.1114Z" fill="#663500"/>
</svg>
