<svg width="34" height="38" viewBox="0 0 34 38" fill="none" xmlns="http://www.w3.org/2000/svg">
<path d="M17 37C25.2843 37 32 30.5081 32 22.5C32 14.4919 25.2843 8 17 8C8.71573 8 2 14.4919 2 22.5C2 30.5081 8.71573 37 17 37Z" stroke="#663500" stroke-width="2"/>
<path d="M3 2C2.90139 1.99995 2.80374 2.01932 2.71263 2.05701C2.62151 2.0947 2.53872 2.14997 2.469 2.21965C2.39927 2.28934 2.34398 2.37207 2.30626 2.46313C2.26855 2.55419 2.24916 2.65179 2.24922 2.75035V3.50007C2.24924 3.59857 2.26869 3.6961 2.30644 3.78709C2.34418 3.87808 2.3995 3.96075 2.46921 4.03037C2.53893 4.1 2.62169 4.15522 2.71276 4.19287C2.80384 4.23052 2.90144 4.24987 3 4.24981C3.19894 4.24976 3.38972 4.17075 3.5304 4.03016C3.67107 3.88957 3.75012 3.6989 3.75017 3.50007V2.75035C3.75022 2.65185 3.73087 2.5543 3.69319 2.46328C3.65552 2.37226 3.60027 2.28955 3.5306 2.21987C3.46094 2.15019 3.37823 2.0949 3.28719 2.05718C3.19615 2.01945 3.09856 2.00003 3 2ZM0.748878 4.24981C0.550117 4.25024 0.359644 4.32945 0.219248 4.47006C0.0788528 4.61067 0 4.80121 0 4.99985C0 5.1985 0.0788528 5.38903 0.219248 5.52964C0.359644 5.67025 0.550117 5.74947 0.748878 5.74989H1.49905C1.69799 5.74984 1.88877 5.67083 2.02944 5.53024C2.17012 5.38964 2.24916 5.19898 2.24922 5.00015C2.24927 4.90165 2.22991 4.8041 2.19223 4.71308C2.15456 4.62206 2.09931 4.53936 2.02965 4.46968C1.95999 4.4 1.87728 4.34472 1.78624 4.307C1.6952 4.26927 1.5976 4.24984 1.49905 4.24981H0.748878ZM4.50034 4.24981C4.30158 4.25024 4.11111 4.32945 3.97071 4.47006C3.83031 4.61067 3.75146 4.80121 3.75146 4.99985C3.75146 5.1985 3.83031 5.38903 3.97071 5.52964C4.11111 5.67025 4.30158 5.74947 4.50034 5.74989H5.25112C5.44988 5.74947 5.64036 5.67025 5.78075 5.52964C5.92115 5.38903 6 5.1985 6 4.99985C6 4.80121 5.92115 4.61067 5.78075 4.47006C5.64036 4.32945 5.44988 4.25024 5.25112 4.24981H4.50034ZM3 5.74989C2.90144 5.74984 2.80385 5.76918 2.71277 5.80683C2.6217 5.84448 2.53893 5.8997 2.46921 5.96932C2.3995 6.03894 2.34418 6.12161 2.30644 6.2126C2.26869 6.30359 2.24924 6.40111 2.24922 6.49961V7.24996C2.24922 7.44888 2.32828 7.63966 2.46902 7.78032C2.60977 7.92098 2.80065 8 2.99969 8C3.19873 8 3.38962 7.92098 3.53036 7.78032C3.6711 7.63966 3.75017 7.44888 3.75017 7.24996V6.49961C3.75011 6.30079 3.67106 6.11012 3.53039 5.96953C3.38972 5.82895 3.19894 5.74994 3 5.74989Z" fill="#663500"/>
<path d="M33.2496 0.000840565C33.1439 0.0059608 33.0406 0.0329732 32.9473 0.0804634C26.5942 3.29674 22.8258 5.20548 20.5806 6.35093C18.7486 7.14938 18.1751 7.48367 17.192 8.17853C16.7108 8.82506 17.1215 9.69594 18.5657 11.0897C19.9275 12.3548 21.4008 13.5073 22.9695 14.5347C24.5168 15.5915 26.1564 16.5211 27.8706 17.3132C28.1703 17.46 28.4822 17.5834 28.8031 17.6822C29.5642 17.9104 30.315 18.2657 31.0748 17.6822C31.1281 17.6633 31.2004 17.4708 31.2465 17.4278C31.3845 17.2423 33.6197 3.13323 33.9918 0.77906C34.0592 0.355642 33.7008 -0.0201652 33.2496 0.000840565ZM32.3655 1.91252C31.9682 4.42354 31.517 7.26664 31.1121 9.80648C30.0147 9.21694 28.9496 8.57502 27.9208 7.88319C26.8885 7.1966 25.8936 6.4607 24.9401 5.67834C27.3286 4.4652 30.0032 3.10912 32.3655 1.91252ZM21.8918 6.76638C23.2697 8.06015 24.7652 9.23626 26.361 10.2811C27.9347 11.3557 29.6052 12.2969 31.3531 13.0938C31.1631 14.2737 31.0129 15.1964 30.9295 15.692C30.1181 15.5502 27.8901 14.6246 24.7108 12.4975C21.5315 10.3705 19.8646 8.69238 19.452 8.01539C19.9167 7.77464 20.7829 7.33164 21.8918 6.76638Z" fill="#663500"/>
<path d="M18 26.4499C18 26.4499 23.0866 27.0207 26.1388 26.9994C26.6581 26.9963 28.1338 26.8676 28.6844 26.0515C29.118 25.4089 29.0405 24.451 28.8342 23.6054C28.4892 22.1915 26.7836 21.3558 25.7162 22.624C25.1653 23.2787 24.9014 26.1682 26.6454 24.5409" stroke="#663500" stroke-width="2" stroke-linecap="round" stroke-linejoin="round"/>
<path d="M19.2794 20.0359C19.4166 16.5025 23.6272 16.7797 23.7191 20.0969" stroke="#663500" stroke-width="2" stroke-linecap="round" stroke-linejoin="round"/>
<path d="M8.27942 20.0359C8.41663 16.5025 12.6272 16.7797 12.7191 20.0969" stroke="#663500" stroke-width="2" stroke-linecap="round" stroke-linejoin="round"/>
<path d="M15.2917 24C16.5603 24.3907 17.8289 24.7814 17.7131 25.2098C17.5974 25.6383 16.0973 26.1046 16.1807 26.563C16.264 27.0214 17.9308 27.472 17.9979 27.8768C18.065 28.2817 16.5325 28.6408 15 29" stroke="#663500" stroke-width="2" stroke-linecap="round" stroke-linejoin="round"/>
</svg>
