<svg width="31" height="31" viewBox="0 0 31 31" fill="none" xmlns="http://www.w3.org/2000/svg">
<path d="M15.5 30C23.5081 30 30 23.5081 30 15.5C30 7.49187 23.5081 1 15.5 1C7.49187 1 1 7.49187 1 15.5C1 23.5081 7.49187 30 15.5 30Z" stroke="#663500" stroke-width="2"/>
<path d="M8.27942 13.0359C8.41663 9.50249 12.6272 9.77968 12.7191 13.0969" stroke="#663500" stroke-width="2" stroke-linecap="round" stroke-linejoin="round"/>
<path d="M18.5539 13.252C18.6911 9.71854 22.9016 9.99576 22.9935 13.3129" stroke="#663500" stroke-width="2" stroke-linecap="round" stroke-linejoin="round"/>
<path d="M6.70749 18.8477C7.19528 20.7933 8.32134 22.5212 9.90713 23.7572C11.4929 24.9933 13.4477 25.6668 15.4615 25.6711C17.4753 25.6668 19.43 24.9933 21.0158 23.7572C22.6016 22.5212 23.7277 20.7933 24.2155 18.8477H6.70749Z" stroke="#663500" stroke-width="2" stroke-linecap="round" stroke-linejoin="round"/>
</svg>
