<svg width="37" height="38" viewBox="0 0 37 38" fill="none" xmlns="http://www.w3.org/2000/svg">
<path d="M8 19.2963C8.14534 16.102 12.6054 16.3526 12.7027 19.3514" stroke="#663500" stroke-width="2" stroke-linecap="round" stroke-linejoin="round"/>
<path d="M18 19.2963C18.1453 16.102 22.6054 16.3526 22.7027 19.3514" stroke="#663500" stroke-width="2" stroke-linecap="round" stroke-linejoin="round"/>
<path d="M23.2336 8.8632C21.018 7.64204 18.5295 7.0011 15.9996 7C12.0215 7.00011 8.20623 8.58052 5.39326 11.3936C2.58029 14.2066 0.999995 18.0218 1 22C0.999996 25.9782 2.58029 29.7934 5.39326 32.6064C8.20623 35.4195 12.0215 36.9999 15.9996 37C17.9695 37 19.9201 36.6121 21.74 35.8583C23.5599 35.1045 25.2136 33.9996 26.6065 32.6067C27.9994 31.2138 29.1043 29.5602 29.8582 27.7403C30.612 25.9204 31 23.9699 31 22C30.9988 19.8518 30.5362 17.729 29.6436 15.775L29.5488 16.2448C29.3849 17.0605 28.6651 17.6478 27.8298 17.6478H27.1979C26.3626 17.6478 25.6435 17.0605 25.4796 16.2448L25.0161 13.9376C24.9316 13.5171 24.6841 13.1526 24.3829 12.8462C23.6096 12.0594 23.1328 10.9823 23.1328 9.79446C23.1328 9.47488 23.1681 9.16324 23.2336 8.8632Z" stroke="#663500" stroke-width="2"/>
<path d="M21 24.7302C20.9584 25.8015 20.3608 26.8186 19.3341 27.5654C18.3074 28.3122 16.9323 28.7301 15.5008 28.7302C14.0693 28.7304 12.6941 28.3129 11.6671 27.5663C10.64 26.8197 10.042 25.8028 10 24.7315" stroke="#663500" stroke-width="2" stroke-linecap="round" stroke-linejoin="round"/>
<path d="M27.5 5C25.0147 5 23 7.07867 23 9.64284C23 10.9069 23.4896 12.053 24.2839 12.8903C24.5932 13.2164 24.8475 13.6044 24.9343 14.0519L25.4105 16.5072C25.5788 17.3752 26.3176 18 27.1755 18H27.8245C28.6824 18 29.4211 17.3752 29.5895 16.5072L30.0657 14.0519C30.1524 13.6044 30.4067 13.2164 30.7162 12.8903C31.5104 12.053 32 10.9069 32 9.64284C32 7.07867 29.9853 5 27.5 5Z" stroke="#663500" stroke-width="2"/>
<path d="M28 2V1Z" fill="black"/>
<path d="M28 2V1" stroke="#663500" stroke-width="2" stroke-linecap="round" stroke-linejoin="round"/>
<path d="M35 10H36Z" fill="black"/>
<path d="M35 10H36" stroke="#663500" stroke-width="2" stroke-linecap="round" stroke-linejoin="round"/>
<path d="M20 10H19Z" fill="black"/>
<path d="M20 10H19" stroke="#663500" stroke-width="2" stroke-linecap="round" stroke-linejoin="round"/>
<path d="M21.6826 3.84814L22.3197 4.61886Z" fill="black"/>
<path d="M21.6826 3.84814L22.3197 4.61886" stroke="#663500" stroke-width="2" stroke-linecap="round" stroke-linejoin="round"/>
<path d="M33.6234 4L33 4.78187L33.6234 4Z" fill="black"/>
<path d="M33.6234 4L33 4.78187" stroke="#663500" stroke-width="2" stroke-linecap="round" stroke-linejoin="round"/>
<path d="M25 13L30 13Z" fill="black"/>
<path d="M25 13L30 13" stroke="#663500" stroke-width="2" stroke-linecap="round" stroke-linejoin="round"/>
</svg>
