<svg width="30" height="29" viewBox="0 0 30 29" fill="none" xmlns="http://www.w3.org/2000/svg">
<path d="M15 4.83325C11.5447 4.83325 8.75 7.53483 8.75 10.8749C8.75 11.3754 9.16974 11.7812 9.6875 11.7812C10.2053 11.7812 10.625 11.3754 10.625 10.8749C10.625 8.53584 12.5803 6.64575 15 6.64575C17.4198 6.64575 19.375 8.53584 19.375 10.8749C19.375 11.9042 19.0981 12.5901 18.7139 13.1218C18.309 13.6821 17.7554 14.1165 17.0868 14.6107C17.03 14.6527 16.9725 14.6951 16.9141 14.7378C15.6511 15.6661 14.0625 16.8335 14.0625 19.3333V19.6353C14.0625 20.1358 14.4823 20.5416 15 20.5416C15.5177 20.5416 15.9375 20.1358 15.9375 19.6353V19.3333C15.9375 17.7415 16.83 17.082 18.1691 16.0924L18.2257 16.0506C18.8853 15.563 19.6597 14.9778 20.251 14.1599C20.8628 13.3133 21.25 12.2623 21.25 10.8749C21.25 7.53483 18.4552 4.83325 15 4.83325Z" fill="#563B29"/>
<path d="M15 25.3749C15.6904 25.3749 16.25 24.8339 16.25 24.1666C16.25 23.4992 15.6904 22.9583 15 22.9583C14.3096 22.9583 13.75 23.4992 13.75 24.1666C13.75 24.8339 14.3096 25.3749 15 25.3749Z" fill="#563B29"/>
</svg>
