<svg width="23" height="27" viewBox="0 0 23 27" fill="none" xmlns="http://www.w3.org/2000/svg">
<path d="M19.8728 16.1966C21.5806 16.1966 22.9651 17.556 22.9651 19.2331V20.0101C22.9651 21.2176 22.5256 22.3853 21.726 23.3026C19.5681 25.7783 16.2856 27 11.9605 27C7.63485 27 4.354 25.7779 2.20026 23.3011C1.40306 22.3845 0.965088 21.2185 0.965088 20.013V19.2331C0.965088 17.556 2.34956 16.1966 4.05739 16.1966H19.8728ZM19.8728 18.2219H4.05739C3.48868 18.2219 3.02765 18.6747 3.02765 19.2331V20.013C3.02765 20.7364 3.29043 21.4359 3.76875 21.986C5.4921 23.9676 8.19527 24.9746 11.9605 24.9746C15.7258 24.9746 18.4313 23.9676 20.159 21.9856C20.6388 21.4352 20.9025 20.7345 20.9025 20.0101V19.2331C20.9025 18.6747 20.4415 18.2219 19.8728 18.2219ZM11.9605 0C15.7575 0 18.8357 3.02263 18.8357 6.75121C18.8357 10.4798 15.7575 13.5024 11.9605 13.5024C8.16347 13.5024 5.08534 10.4798 5.08534 6.75121C5.08534 3.02263 8.16347 0 11.9605 0ZM11.9605 2.02536C9.30256 2.02536 7.1479 4.14121 7.1479 6.75121C7.1479 9.36123 9.30256 11.4771 11.9605 11.4771C14.6185 11.4771 16.7731 9.36123 16.7731 6.75121C16.7731 4.14121 14.6185 2.02536 11.9605 2.02536Z" fill="#563B29"/>
</svg>
