<svg width="25" height="27" viewBox="0 0 25 27" fill="none" xmlns="http://www.w3.org/2000/svg">
<path d="M12.4967 0.5C13.4753 0.51128 14.4501 0.624347 15.4053 0.837387C15.8224 0.930387 16.1343 1.27801 16.1816 1.70261L16.4085 3.73841C16.5112 4.67315 17.3004 5.38112 18.2413 5.38211C18.4941 5.38251 18.7444 5.32984 18.978 5.22644L20.8456 4.40608C21.234 4.23545 21.6877 4.32848 21.9777 4.63816C23.3273 6.07952 24.3324 7.8082 24.9173 9.69411C25.0435 10.1008 24.8984 10.5427 24.5556 10.7953L22.9003 12.0155C22.4281 12.3624 22.1492 12.9133 22.1492 13.4993C22.1492 14.0852 22.4281 14.6361 22.9013 14.9839L24.5581 16.2044C24.9009 16.4569 25.0463 16.8989 24.92 17.3057C24.3353 19.1913 23.3308 20.9199 21.982 22.3615C21.6923 22.6711 21.2388 22.7644 20.8504 22.5941L18.9753 21.7727C18.4389 21.5379 17.8228 21.5723 17.3159 21.8653C16.8089 22.1583 16.4715 22.6749 16.4071 23.2569L16.1816 25.2925C16.1352 25.7123 15.83 26.0576 15.4192 26.1553C13.4879 26.6148 11.4757 26.6148 9.54452 26.1553C9.13368 26.0576 8.82853 25.7123 8.78205 25.2925L8.55694 23.26C8.49084 22.6791 8.15293 22.164 7.64637 21.872C7.13981 21.58 6.52474 21.5457 5.99006 21.7792L4.11457 22.6008C3.72609 22.7711 3.27252 22.6777 2.98285 22.3679C1.6333 20.9247 0.628731 19.194 0.0447309 17.3064C-0.0810424 16.8999 0.064291 16.4581 0.406931 16.2057L2.0647 14.9844C2.53689 14.6375 2.81577 14.0865 2.81577 13.5007C2.81577 12.9147 2.53689 12.3637 2.06409 12.0164L0.407358 10.7971C0.0641976 10.5446 -0.0812691 10.1024 0.0449576 9.69544C0.629958 7.80953 1.63506 6.08085 2.98464 4.63949C3.2746 4.32981 3.72838 4.23679 4.1168 4.40741L5.98396 5.22763C6.52122 5.46341 7.13886 5.4278 7.64816 5.13025C8.15525 4.83612 8.49285 4.31896 8.55802 3.73685L8.7848 1.70261C8.83216 1.2778 9.14429 0.930053 9.56155 0.837253C10.5179 0.62456 11.4937 0.511533 12.4967 0.5ZM12.4969 2.49987C11.8916 2.50699 11.2879 2.55924 10.6909 2.65603L10.5456 3.95891C10.4099 5.17157 9.70718 6.24803 8.65436 6.85871C7.5951 7.47756 6.30362 7.55204 5.17992 7.05889L3.9822 6.53275C3.21961 7.45831 2.61265 8.5018 2.18517 9.62224L3.24889 10.4051C4.23397 11.1288 4.81577 12.2783 4.81577 13.5007C4.81577 14.7229 4.23397 15.8724 3.24993 16.5953L2.18453 17.3803C2.61165 18.5027 3.2187 19.5481 3.98181 20.4755L5.18865 19.9468C6.3061 19.4589 7.5888 19.5303 8.64517 20.1392C9.70156 20.7481 10.4063 21.8223 10.5444 23.0368L10.6897 24.3487C11.8759 24.5504 13.0877 24.5504 14.2739 24.3487L14.4192 23.0369C14.5536 21.8228 15.2575 20.7449 16.3151 20.1337C17.3728 19.5224 18.658 19.4507 19.7775 19.9407L20.9835 20.4689C21.7459 19.5431 22.3527 18.4993 22.78 17.3787L21.7161 16.5948C20.7311 15.8711 20.1492 14.7216 20.1492 13.4993C20.1492 12.2769 20.7311 11.1275 21.7149 10.4046L22.7773 9.62145C22.3499 8.50081 21.7428 7.45712 20.9801 6.53141L19.7848 7.05649C19.2977 7.27201 18.7708 7.38293 18.2387 7.38211C16.2791 7.38005 14.6345 5.90473 14.4207 3.95844L14.2753 2.6556C13.6813 2.55893 13.084 2.50683 12.4969 2.49987ZM12.48 8.49993C15.2415 8.49993 17.48 10.7385 17.48 13.5C17.48 16.2613 15.2415 18.5 12.48 18.5C9.71864 18.5 7.48006 16.2613 7.48006 13.5C7.48006 10.7385 9.71864 8.49993 12.48 8.49993ZM12.48 10.4999C10.8232 10.4999 9.48006 11.8431 9.48006 13.5C9.48006 15.1568 10.8232 16.5 12.48 16.5C14.1369 16.5 15.48 15.1568 15.48 13.5C15.48 11.8431 14.1369 10.4999 12.48 10.4999Z" fill="#563B29"/>
</svg>
